<svg width="80" height="80" viewBox="0 0 80 80" fill="none" xmlns="http://www.w3.org/2000/svg">
<path d="M71.0625 66.7578L50.7734 46.4687C53.9219 42.3984 55.625 37.4219 55.625 32.1875C55.625 25.9219 53.1797 20.0469 48.7578 15.6172C44.3359 11.1875 38.4453 8.75 32.1875 8.75C25.9297 8.75 20.0391 11.1953 15.6172 15.6172C11.1875 20.0391 8.75 25.9219 8.75 32.1875C8.75 38.4453 11.1953 44.3359 15.6172 48.7578C20.0391 53.1875 25.9219 55.625 32.1875 55.625C37.4219 55.625 42.3906 53.9219 46.4609 50.7812L66.75 71.0625C66.8095 71.122 66.8801 71.1692 66.9579 71.2015C67.0356 71.2337 67.119 71.2503 67.2031 71.2503C67.2873 71.2503 67.3706 71.2337 67.4484 71.2015C67.5261 71.1692 67.5968 71.122 67.6562 71.0625L71.0625 67.6641C71.122 67.6046 71.1692 67.5339 71.2015 67.4562C71.2337 67.3784 71.2503 67.2951 71.2503 67.2109C71.2503 67.1268 71.2337 67.0434 71.2015 66.9657C71.1692 66.8879 71.122 66.8173 71.0625 66.7578V66.7578ZM44.5625 44.5625C41.25 47.8672 36.8594 49.6875 32.1875 49.6875C27.5156 49.6875 23.125 47.8672 19.8125 44.5625C16.5078 41.25 14.6875 36.8594 14.6875 32.1875C14.6875 27.5156 16.5078 23.1172 19.8125 19.8125C23.125 16.5078 27.5156 14.6875 32.1875 14.6875C36.8594 14.6875 41.2578 16.5 44.5625 19.8125C47.8672 23.125 49.6875 27.5156 49.6875 32.1875C49.6875 36.8594 47.8672 41.2578 44.5625 44.5625Z" fill="rebeccapurple"/>
</svg>
